<mxfile host="Electron" agent="Mozilla/5.0 (Windows NT 10.0; Win64; x64) AppleWebKit/537.36 (KHTML, like Gecko) draw.io/27.0.5 Chrome/134.0.6998.205 Electron/35.3.0 Safari/537.36" version="27.0.5">
  <diagram name="Page-1" id="zASNmPlyXXqIC5EWw7oC">
    <mxGraphModel dx="727" dy="1541" grid="1" gridSize="10" guides="1" tooltips="1" connect="1" arrows="1" fold="1" page="1" pageScale="1" pageWidth="850" pageHeight="1100" math="0" shadow="0">
      <root>
        <mxCell id="0" />
        <mxCell id="1" parent="0" />
        <mxCell id="nsphgMRLP0QwAALmLKJZ-1" value="&lt;font style=&quot;font-size: 14px;&quot;&gt;User&lt;/font&gt;" style="shape=umlActor;verticalLabelPosition=bottom;verticalAlign=top;html=1;outlineConnect=0;" parent="1" vertex="1">
          <mxGeometry x="120" y="-10" width="45" height="90" as="geometry" />
        </mxCell>
        <mxCell id="nsphgMRLP0QwAALmLKJZ-2" value="" style="endArrow=none;dashed=1;html=1;dashPattern=1 3;strokeWidth=2;rounded=0;" parent="1" edge="1">
          <mxGeometry width="50" height="50" relative="1" as="geometry">
            <mxPoint x="143" y="100" as="sourcePoint" />
            <mxPoint x="143" y="440" as="targetPoint" />
          </mxGeometry>
        </mxCell>
        <mxCell id="nsphgMRLP0QwAALmLKJZ-3" value="&lt;font style=&quot;font-size: 14px;&quot;&gt;Auth Server&lt;/font&gt;" style="rounded=1;whiteSpace=wrap;html=1;" parent="1" vertex="1">
          <mxGeometry x="230" y="-10" width="120" height="60" as="geometry" />
        </mxCell>
        <mxCell id="nsphgMRLP0QwAALmLKJZ-4" value="" style="endArrow=none;dashed=1;html=1;dashPattern=1 3;strokeWidth=2;rounded=0;exitX=0.5;exitY=1;exitDx=0;exitDy=0;" parent="1" source="nsphgMRLP0QwAALmLKJZ-3" edge="1">
          <mxGeometry width="50" height="50" relative="1" as="geometry">
            <mxPoint x="300" y="170" as="sourcePoint" />
            <mxPoint x="290" y="450" as="targetPoint" />
          </mxGeometry>
        </mxCell>
        <mxCell id="nsphgMRLP0QwAALmLKJZ-5" value="&lt;font style=&quot;font-size: 14px;&quot;&gt;ShareHoldings&lt;/font&gt;" style="rounded=1;whiteSpace=wrap;html=1;" parent="1" vertex="1">
          <mxGeometry x="415" y="-10" width="120" height="60" as="geometry" />
        </mxCell>
        <mxCell id="nsphgMRLP0QwAALmLKJZ-6" value="" style="endArrow=none;dashed=1;html=1;dashPattern=1 3;strokeWidth=2;rounded=0;exitX=0.5;exitY=1;exitDx=0;exitDy=0;" parent="1" source="nsphgMRLP0QwAALmLKJZ-5" edge="1">
          <mxGeometry width="50" height="50" relative="1" as="geometry">
            <mxPoint x="485" y="173" as="sourcePoint" />
            <mxPoint x="475" y="453" as="targetPoint" />
          </mxGeometry>
        </mxCell>
        <mxCell id="nsphgMRLP0QwAALmLKJZ-7" value="&lt;font style=&quot;font-size: 14px;&quot;&gt;ListedCompanies&lt;/font&gt;" style="rounded=1;whiteSpace=wrap;html=1;" parent="1" vertex="1">
          <mxGeometry x="600" y="-10" width="120" height="60" as="geometry" />
        </mxCell>
        <mxCell id="nsphgMRLP0QwAALmLKJZ-8" value="" style="endArrow=none;dashed=1;html=1;dashPattern=1 3;strokeWidth=2;rounded=0;exitX=0.5;exitY=1;exitDx=0;exitDy=0;" parent="1" source="nsphgMRLP0QwAALmLKJZ-7" edge="1">
          <mxGeometry width="50" height="50" relative="1" as="geometry">
            <mxPoint x="670" y="173" as="sourcePoint" />
            <mxPoint x="660" y="453" as="targetPoint" />
          </mxGeometry>
        </mxCell>
        <mxCell id="nsphgMRLP0QwAALmLKJZ-9" value="" style="endArrow=classic;html=1;rounded=0;" parent="1" edge="1">
          <mxGeometry width="50" height="50" relative="1" as="geometry">
            <mxPoint x="140" y="146" as="sourcePoint" />
            <mxPoint x="290" y="146" as="targetPoint" />
          </mxGeometry>
        </mxCell>
        <mxCell id="nsphgMRLP0QwAALmLKJZ-10" value="&lt;font style=&quot;font-size: 14px;&quot;&gt;Enter&lt;/font&gt;&lt;div&gt;&lt;font style=&quot;font-size: 14px;&quot;&gt;Credentials&lt;/font&gt;&lt;/div&gt;" style="edgeLabel;html=1;align=center;verticalAlign=middle;resizable=0;points=[];" parent="nsphgMRLP0QwAALmLKJZ-9" vertex="1" connectable="0">
          <mxGeometry x="-0.0044" y="-1" relative="1" as="geometry">
            <mxPoint as="offset" />
          </mxGeometry>
        </mxCell>
        <mxCell id="nsphgMRLP0QwAALmLKJZ-12" value="" style="endArrow=classic;html=1;rounded=0;" parent="1" edge="1">
          <mxGeometry width="50" height="50" relative="1" as="geometry">
            <mxPoint x="289.9999999999998" y="221" as="sourcePoint" />
            <mxPoint x="139.99999999999977" y="221" as="targetPoint" />
          </mxGeometry>
        </mxCell>
        <mxCell id="nsphgMRLP0QwAALmLKJZ-13" value="&lt;font style=&quot;font-size: 14px;&quot;&gt;Verifies&lt;/font&gt;&lt;div&gt;&lt;font style=&quot;font-size: 14px;&quot;&gt;Credentials&amp;nbsp;&lt;/font&gt;&lt;span style=&quot;font-size: 14px; background-color: light-dark(#ffffff, var(--ge-dark-color, #121212)); color: light-dark(rgb(0, 0, 0), rgb(255, 255, 255));&quot;&gt;and&lt;/span&gt;&lt;/div&gt;&lt;div&gt;&lt;span style=&quot;font-size: 14px; background-color: light-dark(#ffffff, var(--ge-dark-color, #121212)); color: light-dark(rgb(0, 0, 0), rgb(255, 255, 255));&quot;&gt;returns JWT&lt;/span&gt;&lt;/div&gt;" style="edgeLabel;html=1;align=center;verticalAlign=middle;resizable=0;points=[];" parent="nsphgMRLP0QwAALmLKJZ-12" vertex="1" connectable="0">
          <mxGeometry x="-0.0044" y="-1" relative="1" as="geometry">
            <mxPoint y="1" as="offset" />
          </mxGeometry>
        </mxCell>
        <mxCell id="nsphgMRLP0QwAALmLKJZ-14" value="" style="endArrow=classic;html=1;rounded=0;" parent="1" edge="1">
          <mxGeometry width="50" height="50" relative="1" as="geometry">
            <mxPoint x="144" y="300" as="sourcePoint" />
            <mxPoint x="474" y="300" as="targetPoint" />
          </mxGeometry>
        </mxCell>
        <mxCell id="nsphgMRLP0QwAALmLKJZ-15" value="&lt;font style=&quot;font-size: 14px;&quot;&gt;Initiates Purchase&lt;/font&gt;" style="edgeLabel;html=1;align=center;verticalAlign=middle;resizable=0;points=[];" parent="nsphgMRLP0QwAALmLKJZ-14" vertex="1" connectable="0">
          <mxGeometry x="-0.0044" y="-1" relative="1" as="geometry">
            <mxPoint x="72" as="offset" />
          </mxGeometry>
        </mxCell>
        <mxCell id="nsphgMRLP0QwAALmLKJZ-16" value="" style="endArrow=classic;html=1;rounded=0;" parent="1" edge="1">
          <mxGeometry width="50" height="50" relative="1" as="geometry">
            <mxPoint x="476" y="299" as="sourcePoint" />
            <mxPoint x="660" y="300" as="targetPoint" />
          </mxGeometry>
        </mxCell>
        <mxCell id="nsphgMRLP0QwAALmLKJZ-17" value="&lt;font style=&quot;font-size: 14px;&quot;&gt;Validate Company&lt;/font&gt;" style="edgeLabel;html=1;align=center;verticalAlign=middle;resizable=0;points=[];" parent="nsphgMRLP0QwAALmLKJZ-16" vertex="1" connectable="0">
          <mxGeometry x="-0.0044" y="-1" relative="1" as="geometry">
            <mxPoint as="offset" />
          </mxGeometry>
        </mxCell>
        <mxCell id="nsphgMRLP0QwAALmLKJZ-18" value="" style="endArrow=classic;html=1;rounded=0;" parent="1" edge="1">
          <mxGeometry width="50" height="50" relative="1" as="geometry">
            <mxPoint x="659" y="399" as="sourcePoint" />
            <mxPoint x="475" y="400" as="targetPoint" />
          </mxGeometry>
        </mxCell>
        <mxCell id="nsphgMRLP0QwAALmLKJZ-19" value="&lt;font style=&quot;font-size: 14px;&quot;&gt;Company Validated&lt;/font&gt;" style="edgeLabel;html=1;align=center;verticalAlign=middle;resizable=0;points=[];" parent="nsphgMRLP0QwAALmLKJZ-18" vertex="1" connectable="0">
          <mxGeometry x="-0.0044" y="-1" relative="1" as="geometry">
            <mxPoint as="offset" />
          </mxGeometry>
        </mxCell>
        <mxCell id="nsphgMRLP0QwAALmLKJZ-20" value="" style="endArrow=classic;html=1;rounded=0;" parent="1" edge="1">
          <mxGeometry width="50" height="50" relative="1" as="geometry">
            <mxPoint x="474" y="400" as="sourcePoint" />
            <mxPoint x="144" y="400" as="targetPoint" />
          </mxGeometry>
        </mxCell>
        <mxCell id="nsphgMRLP0QwAALmLKJZ-21" value="&lt;font style=&quot;font-size: 14px;&quot;&gt;Confirm Purchase&lt;/font&gt;" style="edgeLabel;html=1;align=center;verticalAlign=middle;resizable=0;points=[];" parent="nsphgMRLP0QwAALmLKJZ-20" vertex="1" connectable="0">
          <mxGeometry x="-0.0044" y="-1" relative="1" as="geometry">
            <mxPoint x="60" as="offset" />
          </mxGeometry>
        </mxCell>
        <mxCell id="nsphgMRLP0QwAALmLKJZ-22" value="&lt;font style=&quot;font-size: 14px;&quot;&gt;Create ShareHoldings&lt;/font&gt;" style="text;html=1;align=center;verticalAlign=middle;resizable=0;points=[];autosize=1;strokeColor=none;fillColor=none;" parent="1" vertex="1">
          <mxGeometry x="660" y="240" width="160" height="30" as="geometry" />
        </mxCell>
      </root>
    </mxGraphModel>
  </diagram>
</mxfile>
